<mxfile host="app.diagrams.net" modified="2023-05-27T15:00:49.358Z" agent="Mozilla/5.0 (Windows NT 10.0; Win64; x64) AppleWebKit/537.36 (KHTML, like Gecko) Chrome/113.0.0.0 Safari/537.36" etag="KUCsCgxizgns7lExQgw8" version="21.3.4" type="device">
  <diagram name="Trang-1" id="UXk61kihskyovkhCW3SK">
    <mxGraphModel dx="282" dy="547" grid="1" gridSize="10" guides="1" tooltips="1" connect="1" arrows="1" fold="1" page="1" pageScale="1" pageWidth="827" pageHeight="1169" math="0" shadow="0">
      <root>
        <mxCell id="0" />
        <mxCell id="1" parent="0" />
        <mxCell id="TjMF4283mHJQ_WsP2tkH-3" value="bean" style="shape=folder;fontStyle=1;spacingTop=10;tabWidth=40;tabHeight=14;tabPosition=left;html=1;whiteSpace=wrap;" parent="1" vertex="1">
          <mxGeometry x="150" y="210" width="70" height="190" as="geometry" />
        </mxCell>
        <mxCell id="8RbCiFsGUbZdGivBEb5K-8" style="edgeStyle=orthogonalEdgeStyle;rounded=0;orthogonalLoop=1;jettySize=auto;html=1;exitX=0.5;exitY=1;exitDx=0;exitDy=0;exitPerimeter=0;entryX=0;entryY=0;entryDx=40;entryDy=0;entryPerimeter=0;dashed=1;" edge="1" parent="1" source="TjMF4283mHJQ_WsP2tkH-4" target="TjMF4283mHJQ_WsP2tkH-5">
          <mxGeometry relative="1" as="geometry" />
        </mxCell>
        <mxCell id="TjMF4283mHJQ_WsP2tkH-4" value="UI" style="shape=folder;fontStyle=1;spacingTop=10;tabWidth=40;tabHeight=14;tabPosition=left;html=1;whiteSpace=wrap;" parent="1" vertex="1">
          <mxGeometry x="280" y="170" width="70" height="50" as="geometry" />
        </mxCell>
        <mxCell id="8RbCiFsGUbZdGivBEb5K-1" style="edgeStyle=orthogonalEdgeStyle;rounded=0;orthogonalLoop=1;jettySize=auto;html=1;exitX=0.5;exitY=1;exitDx=0;exitDy=0;exitPerimeter=0;dashed=1;" edge="1" parent="1" source="TjMF4283mHJQ_WsP2tkH-5" target="TjMF4283mHJQ_WsP2tkH-6">
          <mxGeometry relative="1" as="geometry" />
        </mxCell>
        <mxCell id="TjMF4283mHJQ_WsP2tkH-5" value="controller" style="shape=folder;fontStyle=1;spacingTop=10;tabWidth=40;tabHeight=14;tabPosition=left;html=1;whiteSpace=wrap;" parent="1" vertex="1">
          <mxGeometry x="280" y="280" width="70" height="50" as="geometry" />
        </mxCell>
        <mxCell id="8RbCiFsGUbZdGivBEb5K-4" style="edgeStyle=orthogonalEdgeStyle;rounded=0;orthogonalLoop=1;jettySize=auto;html=1;exitX=0;exitY=0;exitDx=70;exitDy=32;exitPerimeter=0;entryX=0.5;entryY=1;entryDx=0;entryDy=0;entryPerimeter=0;dashed=1;" edge="1" parent="1" source="TjMF4283mHJQ_WsP2tkH-6" target="TjMF4283mHJQ_WsP2tkH-7">
          <mxGeometry relative="1" as="geometry" />
        </mxCell>
        <mxCell id="TjMF4283mHJQ_WsP2tkH-6" value="dao" style="shape=folder;fontStyle=1;spacingTop=10;tabWidth=40;tabHeight=14;tabPosition=left;html=1;whiteSpace=wrap;" parent="1" vertex="1">
          <mxGeometry x="280" y="380" width="70" height="50" as="geometry" />
        </mxCell>
        <mxCell id="TjMF4283mHJQ_WsP2tkH-7" value="context" style="shape=folder;fontStyle=1;spacingTop=10;tabWidth=40;tabHeight=14;tabPosition=left;html=1;whiteSpace=wrap;" parent="1" vertex="1">
          <mxGeometry x="430" y="280" width="70" height="50" as="geometry" />
        </mxCell>
        <mxCell id="8RbCiFsGUbZdGivBEb5K-3" value="&amp;lt;&amp;lt;access&amp;gt;&amp;gt;" style="text;html=1;align=center;verticalAlign=middle;resizable=0;points=[];autosize=1;strokeColor=none;fillColor=none;" vertex="1" parent="1">
          <mxGeometry x="295" y="338" width="90" height="30" as="geometry" />
        </mxCell>
        <mxCell id="8RbCiFsGUbZdGivBEb5K-5" value="&amp;lt;&amp;lt;access&amp;gt;&amp;gt;" style="text;html=1;align=center;verticalAlign=middle;resizable=0;points=[];autosize=1;strokeColor=none;fillColor=none;" vertex="1" parent="1">
          <mxGeometry x="375" y="388" width="90" height="30" as="geometry" />
        </mxCell>
        <mxCell id="8RbCiFsGUbZdGivBEb5K-10" value="" style="endArrow=classic;html=1;rounded=0;dashed=1;exitX=0;exitY=0;exitDx=0;exitDy=32;exitPerimeter=0;entryX=0.971;entryY=0.349;entryDx=0;entryDy=0;entryPerimeter=0;" edge="1" parent="1" source="TjMF4283mHJQ_WsP2tkH-4" target="TjMF4283mHJQ_WsP2tkH-3">
          <mxGeometry width="50" height="50" relative="1" as="geometry">
            <mxPoint x="230" y="290" as="sourcePoint" />
            <mxPoint x="280" y="240" as="targetPoint" />
          </mxGeometry>
        </mxCell>
        <mxCell id="8RbCiFsGUbZdGivBEb5K-11" value="" style="endArrow=classic;html=1;rounded=0;dashed=1;exitX=0;exitY=0;exitDx=0;exitDy=23;exitPerimeter=0;entryX=1.029;entryY=0.699;entryDx=0;entryDy=0;entryPerimeter=0;" edge="1" parent="1" source="TjMF4283mHJQ_WsP2tkH-6" target="TjMF4283mHJQ_WsP2tkH-3">
          <mxGeometry width="50" height="50" relative="1" as="geometry">
            <mxPoint x="290" y="212" as="sourcePoint" />
            <mxPoint x="228" y="286" as="targetPoint" />
          </mxGeometry>
        </mxCell>
        <mxCell id="8RbCiFsGUbZdGivBEb5K-12" value="" style="endArrow=classic;html=1;rounded=0;dashed=1;exitX=0;exitY=0;exitDx=0;exitDy=32;exitPerimeter=0;entryX=0;entryY=0;entryDx=70;entryDy=102;entryPerimeter=0;" edge="1" parent="1" source="TjMF4283mHJQ_WsP2tkH-5" target="TjMF4283mHJQ_WsP2tkH-3">
          <mxGeometry width="50" height="50" relative="1" as="geometry">
            <mxPoint x="300" y="222" as="sourcePoint" />
            <mxPoint x="238" y="296" as="targetPoint" />
          </mxGeometry>
        </mxCell>
      </root>
    </mxGraphModel>
  </diagram>
</mxfile>
